<svg width="18" height="19" viewBox="0 0 18 19" fill="none" xmlns="http://www.w3.org/2000/svg">
<path d="M12.7061 11.755H11.9161L11.6361 11.485C12.6161 10.345 13.2061 8.865 13.2061 7.255C13.2061 3.665 10.2961 0.755005 6.70605 0.755005C3.11605 0.755005 0.206055 3.665 0.206055 7.255C0.206055 10.845 3.11605 13.755 6.70605 13.755C8.31605 13.755 9.79605 13.165 10.9361 12.185L11.2061 12.465V13.255L16.2061 18.245L17.6961 16.755L12.7061 11.755ZM6.70605 11.755C4.21605 11.755 2.20605 9.745 2.20605 7.255C2.20605 4.76501 4.21605 2.755 6.70605 2.755C9.19605 2.755 11.2061 4.76501 11.2061 7.255C11.2061 9.745 9.19605 11.755 6.70605 11.755Z" fill="#DEBF8D"/>
</svg>
