<svg width="39" height="39" viewBox="0 0 39 39" fill="none" xmlns="http://www.w3.org/2000/svg">
<circle cx="19.5" cy="19.5" r="19" stroke="#DEBF8D"/>
<path d="M23.5 21H22.71L22.43 20.73C23.41 19.59 24 18.11 24 16.5C24 12.91 21.09 10 17.5 10C13.91 10 11 12.91 11 16.5C11 20.09 13.91 23 17.5 23C19.11 23 20.59 22.41 21.73 21.43L22 21.71V22.5L27 27.49L28.49 26L23.5 21ZM17.5 21C15.01 21 13 18.99 13 16.5C13 14.01 15.01 12 17.5 12C19.99 12 22 14.01 22 16.5C22 18.99 19.99 21 17.5 21Z" fill="#DEBF8D"/>
</svg>
