<svg width="67" height="35" viewBox="0 0 67 35" fill="none" xmlns="http://www.w3.org/2000/svg">
<rect width="67" height="35" fill="url(#paint0_linear)"/>
<path d="M4.6875 11.0781C7.63357 10.0184 9.94911 7.67258 10.9972 4.7H56.0022C57.0459 7.67303 59.3662 10.0183 62.3068 11.0779V23.9219C59.3607 24.9816 57.0452 27.3274 55.9971 30.3H10.9978C9.95399 27.3267 7.63328 24.9813 4.6875 23.9219V11.0781ZM11.3617 17.4971C11.3617 19.3205 12.8319 20.7971 14.6534 20.7971C16.4749 20.7971 17.9451 19.3205 17.9451 17.4971C17.9451 15.6738 16.4749 14.1971 14.6534 14.1971C12.8319 14.1971 11.3617 15.6738 11.3617 17.4971ZM23.2292 16.8C23.2292 22.4862 27.8271 27.1 33.5 27.1C39.1729 27.1 43.7708 22.4862 43.7708 16.8C43.7708 11.1138 39.1729 6.5 33.5 6.5C27.8271 6.5 23.2292 11.1138 23.2292 16.8ZM49.0549 17.4971C49.0549 19.3205 50.5251 20.7971 52.3466 20.7971C54.1617 20.7971 55.6383 19.3211 55.6383 17.4971C55.6383 15.6738 54.1681 14.1971 52.3466 14.1971C50.5251 14.1971 49.0549 15.6738 49.0549 17.4971Z" fill="url(#paint1_linear)" stroke="#102E51"/>
<path d="M52.1928 0H40.8837H0V35H67V0H52.1928ZM64.2083 25.3486L63.6842 25.4857C60.6817 26.2686 58.3344 28.64 57.5596 31.6743L57.4229 32.2H9.57143L9.43469 31.6743C8.65986 28.64 6.31828 26.2686 3.31582 25.4857L2.79167 25.3486V9.65143L3.31582 9.51429C6.31828 8.73143 8.66556 6.36 9.44039 3.32571L9.57143 2.8H57.4286L57.5653 3.32571C58.3401 6.36 60.6874 8.73143 63.6899 9.51429L64.214 9.65143V25.3486H64.2083Z" fill="url(#paint2_linear)"/>
<path d="M34.1437 16.3371L33.4771 16.0057C32.1553 15.3543 31.409 14.9429 31.409 14C31.409 12.84 32.3491 11.8971 33.5056 11.8971C34.6621 11.8971 35.6022 12.84 35.6022 14H36.998C36.998 12.3086 35.7959 10.8971 34.2064 10.5714V9.8H32.8105V10.5714C31.221 10.8971 30.0189 12.3086 30.0189 14C30.0189 15.8571 31.5344 16.6057 32.8675 17.2629L33.5341 17.5943C34.8558 18.2457 35.6022 18.6571 35.6022 19.6C35.6022 20.76 34.6621 21.7029 33.5056 21.7029C32.3491 21.7029 31.409 20.76 31.409 19.6H30.0132C30.0132 21.2914 31.2153 22.7029 32.8048 23.0286V23.8H34.2007V23.0286C35.7902 22.7029 36.9923 21.2914 36.9923 19.6C36.9866 17.7429 35.4768 16.9943 34.1437 16.3371Z" fill="#102E51"/>
<defs>
<linearGradient id="paint0_linear" x1="-1.53473e-07" y1="17.7869" x2="67" y2="17.7869" gradientUnits="userSpaceOnUse">
<stop stop-color="#DEBF8D"/>
<stop offset="0.359304" stop-color="#FFE6AB"/>
<stop offset="0.684917" stop-color="#DEBF8D"/>
<stop offset="1" stop-color="#D3A87E"/>
<stop offset="1" stop-color="#DFCA92"/>
</linearGradient>
<linearGradient id="paint1_linear" x1="4.1875" y1="17.718" x2="62.8068" y2="17.718" gradientUnits="userSpaceOnUse">
<stop stop-color="#DEBF8D"/>
<stop offset="0.359304" stop-color="#FFE6AB"/>
<stop offset="0.684917" stop-color="#DEBF8D"/>
<stop offset="1" stop-color="#D3A87E"/>
<stop offset="1" stop-color="#DFCA92"/>
</linearGradient>
<linearGradient id="paint2_linear" x1="-1.53473e-07" y1="17.7869" x2="67" y2="17.7869" gradientUnits="userSpaceOnUse">
<stop stop-color="#DEBF8D"/>
<stop offset="0.359304" stop-color="#FFE6AB"/>
<stop offset="0.684917" stop-color="#DEBF8D"/>
<stop offset="1" stop-color="#D3A87E"/>
<stop offset="1" stop-color="#DFCA92"/>
</linearGradient>
</defs>
</svg>
