<svg width="663" height="177" viewBox="0 0 663 177" fill="none" xmlns="http://www.w3.org/2000/svg">
<path d="M661.327 69.2341C659.896 68.0934 658.178 68.6638 656.747 69.8045C656.174 70.3748 655.602 70.9452 655.029 71.5155C653.598 73.2266 652.452 74.9376 651.307 76.6487C646.727 83.4929 642.146 90.6222 637.279 97.4665C636.707 98.322 635.848 99.4627 634.989 100.033C632.985 101.744 631.553 101.459 631.553 98.6072C631.267 95.1851 631.267 91.4778 631.84 88.0557C633.844 75.508 636.134 62.9603 638.138 50.4126C638.424 48.9867 638.997 48.7015 640.142 48.4163C644.723 47.2756 649.017 46.4201 653.311 45.2794C655.029 44.709 657.033 43.5683 658.178 42.4276C659.037 41.8573 659.037 40.1462 658.751 39.0055C658.751 38.7204 657.319 38.4352 656.174 38.15C655.602 38.15 654.743 38.15 654.17 38.4352C649.303 39.0055 644.15 39.5759 638.997 40.1462C638.997 37.8648 638.997 36.1538 638.997 34.1576C639.569 27.0282 635.848 22.7506 629.263 20.4691C628.69 20.184 628.404 20.184 627.832 19.8988C625.541 19.0433 624.682 19.3284 624.11 21.6098C622.392 27.8837 620.674 33.8724 618.957 40.1462C618.384 42.4276 617.525 43.2832 615.235 43.5683C610.368 44.4239 605.787 45.2794 600.92 46.4201C600.348 46.7053 599.489 46.9904 598.916 47.2756C597.485 49.557 599.489 53.8347 602.066 54.1198C604.07 54.405 606.36 54.1198 608.65 53.8347C610.94 53.5495 613.231 52.9791 615.807 52.694C615.807 53.8347 615.521 54.405 615.521 54.9754C614.376 62.3899 613.231 69.8045 612.086 76.9338C611.513 79.7856 611.799 82.9225 610.654 85.4891C608.65 90.0519 606.074 94.0443 603.211 98.0368C601.779 100.318 599.775 102.029 597.485 103.74C595.481 105.166 594.049 104.596 593.477 102.314C593.191 101.459 593.191 100.318 593.191 99.4627C593.477 95.7554 593.763 92.0481 594.336 88.626C595.481 82.3522 596.626 76.0783 596.053 69.5193C594.908 56.9716 585.174 51.2681 573.723 56.4012C573.15 56.6864 572.578 56.9716 571.719 57.2568C572.291 56.1161 572.578 55.2605 572.864 54.6902C576.872 46.1349 580.88 37.5797 582.598 28.4541C583.743 23.3209 584.602 17.9026 584.602 12.7694C584.602 8.49179 582.884 6.21039 578.303 5.06969C575.441 4.78451 572.291 5.92521 569.715 9.06214C565.993 13.6249 563.703 19.0433 562.271 24.7468C558.263 41.0018 554.255 57.5419 552.537 74.3673C551.679 81.4967 549.961 87.7705 545.38 93.1888C542.517 96.6109 540.227 100.033 537.364 104.025C537.364 102.885 537.364 102.6 537.364 102.314C539.082 88.9112 539.941 75.508 539.368 62.1047C539.368 59.253 538.509 56.4012 537.65 53.5495C536.792 50.4126 534.501 49.2719 531.352 48.9867C530.207 48.7015 529.062 48.9867 527.63 48.9867C523.909 48.9867 522.477 50.4125 522.191 54.1198C522.191 55.8309 521.904 57.5419 521.618 59.8233C520.759 58.9678 520.473 58.3975 519.9 58.1123C515.892 53.5495 510.739 52.1236 504.727 54.405C496.138 57.5419 491.844 64.3861 489.267 72.6562C487.55 78.3597 488.122 84.0632 488.981 89.7667C489.268 90.6223 489.268 92.0481 488.695 92.3333C485.832 94.8999 482.969 97.4665 479.82 99.4627C477.816 100.889 475.239 99.4627 474.38 97.1813C473.522 94.6147 472.663 91.4778 472.949 88.9112C473.522 82.9225 474.667 76.9338 476.098 70.9452C477.243 65.812 478.675 60.964 479.534 55.8309C480.393 50.6977 476.671 47.2756 471.231 48.1311C469.227 48.4163 467.796 49.2718 467.223 51.2681C466.651 53.5495 465.792 55.5457 465.219 57.5419C461.497 69.5193 458.921 81.7818 460.066 94.3295C460.352 97.1813 461.211 100.318 462.07 102.885C463.215 105.737 465.505 108.018 468.655 108.588C474.38 109.729 479.82 109.159 484.114 104.881C486.691 102.6 489.268 100.033 491.844 97.7516C495.28 101.744 499.288 104.596 504.441 105.451C509.88 106.307 514.175 104.311 517.896 100.889C517.896 105.737 517.896 110.585 517.896 115.433C517.896 116.858 517.324 117.999 516.179 118.855C511.026 122.847 506.159 126.554 501.292 130.832C496.138 135.11 490.985 139.672 486.977 145.376C478.102 157.068 487.263 173.038 497.57 175.604C505.872 177.886 513.316 176.175 520.187 170.756C527.344 165.053 530.493 157.068 531.638 148.513C532.783 137.961 533.929 127.695 535.074 117.144C535.074 116.003 535.646 114.577 536.219 113.721C539.941 108.873 543.662 104.025 547.384 99.4627C547.671 98.8923 548.243 98.6072 548.529 98.322C548.529 101.459 548.529 104.596 548.529 107.448C548.529 109.729 549.388 110.87 551.392 111.44C554.828 112.01 557.977 112.01 561.412 112.296C563.989 112.581 564.562 111.155 564.848 108.873C565.993 97.4665 567.138 86.0595 567.997 74.6524C568.57 69.8045 571.719 65.812 576.586 64.6713C578.876 64.101 580.307 64.6713 580.88 66.9527C581.453 69.2341 581.739 71.5155 581.453 73.7969C580.594 79.5004 579.162 85.2039 578.017 90.9074C576.586 97.1813 576.299 103.74 578.59 109.729C582.598 120.28 591.473 122.562 599.489 114.292C603.497 110.299 606.36 105.451 609.795 100.889C610.368 100.318 610.654 99.4627 611.227 98.322C611.227 99.7479 611.227 100.603 611.513 101.459C612.372 105.166 612.945 108.873 614.376 112.296C616.953 118.284 622.392 120.28 628.404 117.429C630.408 116.573 632.412 115.147 634.13 113.436C635.848 111.725 637.852 109.729 638.997 107.733C646.154 96.8961 653.311 85.7743 660.469 74.6524C662.186 72.0859 663.045 70.66 661.327 69.2341ZM578.303 15.6212C579.735 17.9026 580.021 19.6136 579.735 21.6098C578.59 29.3096 576.299 36.7241 572.864 43.8535C574.295 34.4427 574.868 25.032 578.303 15.6212ZM513.602 155.072C512.171 157.924 509.88 160.205 507.59 162.486C505.013 164.768 501.864 165.053 498.429 163.912C494.134 162.772 491.844 158.779 493.276 154.216C494.134 151.365 495.28 148.798 496.997 146.517C502.723 138.532 510.739 132.828 518.469 126.84C518.469 136.535 518.469 146.231 513.602 155.072ZM521.046 74.9376C520.759 76.0783 521.046 77.219 520.759 78.3597C520.473 82.3522 520.759 86.3446 518.183 89.7667C516.465 92.3333 514.175 94.3295 511.312 95.1851C508.163 96.0406 506.159 95.1851 505.013 92.0481C503.009 86.6298 504.155 81.2115 505.586 75.7931C506.731 71.8007 508.163 67.8082 511.598 64.9565C514.175 62.9603 516.179 62.9603 517.896 65.5268C519.9 68.3786 521.332 71.5155 521.046 74.9376Z" fill="white"/>
<path d="M273.691 60.1085C272.546 60.964 271.401 62.3899 270.256 63.5306C267.393 67.2379 263.958 70.3748 259.663 72.6562C258.232 70.3748 257.087 68.3786 255.942 66.6675C254.796 64.6713 253.365 62.6751 251.934 60.6789C250.502 58.9678 250.502 57.2568 251.361 55.2605C253.079 51.2681 254.51 47.2756 255.083 42.998C255.655 38.7204 251.647 35.0131 247.353 35.2983C242.2 35.5834 237.619 40.1463 237.905 45.5646C237.905 48.9867 238.478 52.694 239.909 55.5457C241.913 59.5382 241.055 62.6751 239.05 66.0972C233.897 74.9376 227.599 82.9225 219.583 89.4816C215.575 92.6185 211.567 92.9037 207.559 89.4816C205.268 87.4853 203.264 84.9188 200.974 82.6374C199.829 81.4967 199.543 80.0708 201.26 78.9301C202.405 78.0746 203.264 76.9339 204.123 75.7932C208.704 70.3748 212.712 64.6713 214.43 57.5419C215.861 51.8384 215.002 46.7053 210.135 42.7128C205.268 39.0055 199.829 39.2907 194.676 42.4277C186.373 47.2756 182.365 54.9754 181.22 64.3861C180.361 71.5155 180.934 78.3597 184.083 84.9188C180.361 88.0557 175.781 88.9112 171.2 90.0519C162.898 92.0481 158.031 89.7667 154.309 82.067C154.023 81.4967 154.023 80.0708 154.595 79.5004C157.172 76.0783 160.321 72.6562 162.611 68.9489C164.902 65.2417 166.906 61.2492 168.051 56.9716C169.482 51.5533 168.051 46.9905 163.184 43.5684C158.603 40.1463 153.736 39.5759 148.583 42.4277C144.861 44.4239 141.998 47.2756 139.708 50.6977C133.41 60.3937 131.406 70.9452 135.127 82.3522C135.414 82.9225 135.414 84.3484 135.127 84.6336C131.406 87.2002 127.684 89.4816 123.103 89.7667C119.668 90.0519 117.664 88.626 117.091 85.2039C116.805 82.6374 116.519 80.0708 116.805 77.7894C117.664 68.9489 117.95 60.1085 116.519 51.2681C115.373 43.2832 107.071 41.0018 101.059 43.8535C96.7647 45.8498 92.4703 48.1312 88.176 50.1274C87.6034 50.4126 87.0309 50.6977 85.8857 51.2681C85.8857 48.7015 86.172 46.7053 85.8857 44.7091C84.4542 35.8686 76.7244 32.7317 69.2809 37.5797C68.1358 38.4352 66.9906 39.2907 66.1317 40.4314C59.5471 48.7015 62.1237 59.5382 71.5712 64.6713C71.2849 65.5268 70.9986 66.0972 70.9986 66.9527C68.1358 75.2228 64.9866 83.4929 62.1237 92.0481C61.5511 93.7592 60.9785 95.4702 60.6922 97.4665C60.4059 99.7479 61.5511 101.459 64.1277 102.314C66.1317 103.17 67.8495 102.6 68.9946 100.603C69.5672 99.4627 70.4261 98.322 70.9986 97.1813C75.8656 86.6298 80.4462 76.3635 83.3091 64.9565C83.5954 64.101 83.8817 63.2454 84.4542 62.9603C87.3171 61.5344 90.18 60.1085 93.3292 59.253C96.1921 58.3975 97.6236 59.5382 97.6236 62.6751C97.6236 64.6713 97.3373 66.6675 97.3373 68.3786C97.3373 73.7969 97.6236 79.2153 97.6236 84.6336C97.9098 89.4816 98.7687 94.3295 100.2 98.8923C102.204 104.311 105.926 106.877 111.365 106.877C113.942 106.877 116.519 106.592 119.095 105.737C122.817 104.311 126.252 102.314 129.688 100.318C133.41 98.0368 136.845 95.4702 140.567 93.1888C141.14 94.0444 141.712 94.6147 142.285 95.1851C146.865 100.889 152.591 104.026 160.321 103.455C168.623 102.885 175.781 99.4627 182.365 94.6147C184.083 93.1888 186.087 92.0481 187.518 90.6223C189.809 93.7592 192.099 96.6109 194.676 99.4627C200.401 105.451 208.131 106.592 215.288 102.314C218.438 100.603 221.301 98.0368 223.877 95.7554C231.893 88.3409 238.192 79.5004 243.917 70.3748C244.49 69.5193 245.063 68.6638 245.921 67.2379C247.639 70.9452 249.071 74.0821 250.502 77.5042C247.639 78.9301 245.063 80.356 242.486 82.067C235.615 86.3446 230.175 92.0481 228.171 100.318C225.595 109.444 230.175 117.429 239.337 119.425C241.913 119.995 244.776 119.995 247.639 119.71C258.804 117.999 267.107 109.729 267.966 98.8923C268.538 93.474 267.679 88.3409 265.389 83.2077C264.817 81.4967 263.958 79.7856 263.385 78.0746C265.103 76.9338 266.534 76.0783 267.966 74.9376C271.687 72.0859 274.837 68.9489 276.554 64.3861C276.841 63.5306 277.127 62.3899 277.127 61.2492C276.268 59.8233 275.123 58.9678 273.691 60.1085ZM74.7204 54.405C74.4341 54.405 74.1478 54.6902 73.8615 54.6902C73.0027 53.8347 71.5712 52.9791 71.2849 51.8384C69.8535 49.2719 70.4261 46.7053 72.1438 44.4239C72.7164 43.8535 73.5753 42.998 74.4341 43.2832C75.0067 43.2832 75.5793 44.7091 75.5793 45.2794C75.293 48.7015 75.0067 51.5533 74.7204 54.405ZM149.442 54.6902C150.014 52.4088 151.446 50.1274 152.877 48.4163C154.309 46.4201 156.599 46.7053 158.031 48.9867C159.462 50.9829 160.035 52.9791 159.462 55.5457C158.603 62.1047 154.881 66.9527 150.015 72.0859C148.869 65.812 147.724 60.3937 149.442 54.6902ZM199.829 49.2719C201.26 47.846 202.978 47.5608 204.123 49.2719C204.696 50.1274 205.268 51.2681 205.555 52.4088C205.841 60.6789 202.692 67.8082 197.539 74.0821C193.244 66.9527 194.676 54.9754 199.829 49.2719ZM246.208 50.4126C245.063 48.1312 244.204 46.4201 245.349 44.4239C245.635 43.8535 246.208 43.8535 246.78 43.5684C247.067 44.1387 247.639 44.7091 247.639 45.2794C247.353 46.7053 246.78 48.1312 246.208 50.4126ZM251.934 97.1813C249.929 101.174 246.494 103.17 242.486 102.029C239.623 101.174 238.478 99.1775 239.05 96.3258C239.623 93.474 241.055 90.9074 243.345 89.1964C245.921 87.2002 249.071 85.2039 251.934 83.2077C253.651 88.3409 253.938 92.9037 251.934 97.1813Z" fill="white"/>
<path d="M400.518 54.6902C399.945 54.405 398.514 54.9753 397.941 55.5457C397.082 56.4012 396.51 57.5419 395.651 58.6826C390.497 65.5268 385.058 72.6562 379.618 79.5004C377.901 81.4966 375.897 83.2077 374.179 85.2039C373.32 84.0632 372.748 83.2077 372.175 82.3522C370.171 80.6411 368.453 78.3597 366.163 76.9338C362.441 74.6524 358.719 75.2228 355.856 77.7894C352.707 80.9263 352.135 85.4891 354.425 89.1964C356.429 92.6185 359.292 94.8999 363.3 95.4702C365.59 95.7554 368.167 95.4702 370.457 95.4702C370.457 96.0406 370.744 96.3258 370.744 96.8961C371.889 105.166 370.171 112.866 367.022 120.566C365.304 124.843 361.869 125.414 359.006 121.706C356.715 118.569 354.711 114.862 353.28 110.87C348.986 98.322 347.84 85.4891 348.127 72.371C348.127 71.5155 348.986 70.3748 349.844 69.8045C355.856 65.5268 361.296 60.3937 365.59 54.1198C369.026 48.9867 371.316 43.2832 371.889 37.0093C372.461 30.4503 367.881 25.6023 361.582 25.6023C358.147 25.6023 355.856 27.5985 353.566 29.8799C349.558 33.8724 346.981 38.4352 345.55 43.5683C343.546 50.4125 341.828 57.2567 339.824 64.101C339.538 64.9565 338.965 66.0972 338.393 66.3824C336.675 66.9527 334.957 67.2379 333.24 67.5231C332.953 66.3824 332.953 65.812 332.667 64.9565C331.522 58.3974 328.659 53.2643 323.792 48.9867C320.643 46.1349 316.921 44.9942 313.199 46.1349C305.47 48.1311 299.171 52.6939 296.022 60.1085C292.3 68.9489 290.01 78.3597 290.869 88.0557C291.155 92.3333 292.014 96.3257 294.018 100.318C300.03 111.44 312.627 113.721 322.074 105.451C327.514 100.889 330.663 94.6147 332.094 87.7705C332.953 83.778 333.24 79.7856 334.098 75.508C335.244 75.2228 336.675 74.9376 338.107 74.6524C338.107 74.9376 338.393 75.2228 338.393 75.2228C338.107 77.219 338.107 79.2152 337.82 80.9263C336.961 94.3295 337.534 107.733 340.683 120.566C342.401 127.98 345.836 134.539 351.276 139.672C358.147 146.231 367.881 145.376 373.034 137.106C375.61 133.113 377.328 128.551 378.76 123.703C381.623 113.151 382.481 102.6 378.76 92.0481C378.473 91.4778 379.046 90.3371 379.618 90.0519C388.78 82.067 395.651 72.371 400.804 61.5344C401.376 60.1085 401.949 58.6826 402.235 56.9716C401.376 56.4012 401.09 54.9753 400.518 54.6902ZM359.006 86.3446C358.719 86.0594 358.433 85.7743 358.147 85.2039C357.86 84.9187 357.86 84.6336 357.86 84.3484V84.0632V83.778V83.4929L358.147 83.2077C359.006 82.3522 360.151 81.7818 361.01 81.7818C362.441 82.067 363.873 83.2077 365.018 84.0632C366.163 84.9187 366.735 86.3446 367.594 87.7705C364.445 88.9112 361.582 88.0557 359.006 86.3446ZM348.986 59.5381C349.558 56.4012 350.131 53.2643 350.99 50.1274C351.562 48.1311 352.135 46.1349 352.707 43.8535C353.852 40.7166 354.998 37.8648 356.715 35.0131C356.715 34.7279 357.002 34.4427 357.288 34.4427C357.86 33.8724 358.719 33.302 359.292 32.7317C359.578 33.0169 359.578 33.302 359.865 33.5872C360.151 34.1576 360.723 34.7279 361.01 35.2983C361.01 35.5834 361.296 35.8686 361.296 36.1538C361.582 37.5797 361.582 39.2907 361.296 40.7166C360.723 44.9942 359.006 49.2718 356.429 52.9791C355.57 54.405 354.425 55.5457 353.28 56.6864C352.135 57.8271 350.99 58.9678 349.844 60.3937C349.558 59.8233 349.272 59.5381 348.986 59.5381ZM315.203 53.5495C316.349 52.6939 317.494 52.9791 318.639 53.8346C318.925 53.8346 318.925 54.1198 319.211 54.1198C320.643 55.2605 321.788 56.6864 322.647 58.1123C323.506 59.5381 324.078 61.2492 324.651 62.9603C324.937 64.101 325.223 65.2416 325.223 66.6675C322.361 65.5268 319.784 63.8158 317.78 61.8195C316.635 60.6788 315.49 59.253 314.917 57.5419C314.631 57.2567 314.631 56.9716 314.631 56.4012C314.631 56.116 314.631 55.8309 314.631 55.2605C314.345 54.6902 314.631 54.1198 315.203 53.5495ZM321.215 94.3295C320.07 96.6109 318.639 99.1775 315.776 98.8923C312.627 98.6071 311.482 96.0406 310.623 93.474C309.764 90.9074 309.191 88.3408 309.191 85.4891V85.2039C308.905 80.0708 309.478 70.66 309.478 70.66C304.611 64.6713 304.611 56.6864 304.611 55.5457C304.611 55.5457 304.611 55.5457 304.611 55.2605C307.76 66.0972 313.772 73.7969 325.796 75.7931C325.224 82.6373 324.078 88.626 321.215 94.3295Z" fill="white"/>
<path d="M497.57 112.296C497.57 110.014 496.138 109.444 494.42 110.585C490.412 113.436 485.832 114.577 481.251 114.862C471.804 115.147 462.929 113.151 454.34 109.729C451.191 108.303 448.042 106.877 444.606 105.451C450.046 91.763 451.191 77.7894 452.908 63.5306C454.054 54.405 455.771 45.5646 457.203 36.439C458.062 31.8762 458.062 32.1613 462.642 31.3058C470.086 29.8799 476.957 27.0282 482.11 21.6099C488.695 15.0508 485.832 3.92899 476.957 0.792063C472.662 -0.633813 468.941 -0.0634625 464.933 1.93276C456.058 6.21039 450.618 13.3398 446.324 21.895C445.465 23.6061 444.32 24.4616 442.602 24.1764C437.449 23.3209 432.582 22.4654 427.429 21.3247C425.997 21.0395 424.279 20.184 423.421 22.1802C422.562 24.1764 424.28 25.3171 425.425 25.8875C428.86 27.3134 432.296 29.0244 435.731 30.1651C437.735 31.0206 440.025 31.0206 442.316 31.591C434.586 53.5495 433.441 76.6487 428.288 99.1775C426.856 98.8923 425.711 98.6072 424.566 98.322C419.126 97.1813 413.687 96.8961 408.534 99.1775C399.372 103.455 397.368 113.721 403.953 121.136C410.251 128.265 421.417 129.691 429.719 123.988C432.868 121.992 435.445 119.14 438.594 116.573C443.461 119.71 448.614 123.132 454.054 126.269C460.638 130.262 467.509 131.973 475.239 130.832C482.396 129.691 488.981 127.125 494.134 121.706C496.424 118.855 497.57 116.003 497.57 112.296ZM472.949 7.06592C474.38 6.78074 476.67 6.49557 477.243 7.35109C478.102 8.49179 478.102 10.488 478.102 11.9139C478.102 13.0546 477.243 14.1953 476.67 15.0508C472.376 19.8988 466.937 21.895 460.925 23.0357C461.497 16.7619 467.509 8.49179 472.949 7.06592ZM419.985 117.144C417.695 119.71 413.973 119.995 410.824 117.714C408.247 115.718 406.816 111.725 408.247 108.873C408.82 108.018 409.965 107.162 411.11 106.877C415.977 105.166 420.844 106.307 426.284 108.303C423.993 111.44 421.989 114.292 419.985 117.144Z" fill="white"/>
<path d="M84.1679 9.63249C85.8857 8.77697 85.3131 7.06592 85.0268 5.64004C84.7405 5.06969 83.5954 4.49934 82.7365 3.92899C81.8776 3.64382 81.0188 3.92899 80.1599 3.92899C71.5712 4.49934 62.9825 5.06969 54.3938 5.92522C38.0754 7.35109 21.4706 9.06214 4.86579 6.49557C3.14805 6.21039 0.857736 6.21039 0.285158 8.49179C-0.57371 10.2028 0.571447 12.1991 2.86176 13.3398C4.00692 13.9101 5.15208 14.4805 6.58352 14.7656C10.019 15.6212 13.1682 16.1915 16.6037 16.7619C22.0431 17.3322 27.4826 17.3322 32.9221 17.9026C32.9221 19.3285 32.6359 20.4692 32.6359 21.895C32.0633 29.3096 31.4907 36.439 30.9181 43.8535C29.4867 62.3899 27.7689 80.6411 26.0512 99.1775C25.4786 104.881 25.1923 110.585 24.6198 116.288C24.6198 117.714 25.1923 118.569 26.6238 118.569C31.4907 117.999 36.3576 117.429 41.2245 116.288C44.66 115.433 45.2326 114.007 45.5189 110.585C45.5189 108.303 45.2326 106.307 45.5189 104.025C48.3818 75.508 51.2447 47.2756 54.1076 18.7581C54.3938 17.3322 54.6801 16.7619 56.3979 16.4767C64.414 15.0508 72.4301 13.3398 80.4462 11.6287C81.8776 11.0584 83.0228 10.2028 84.1679 9.63249Z" fill="white"/>
<path d="M475.239 35.8686C474.38 38.15 474.667 40.4314 475.812 42.4276C477.243 44.9942 479.82 46.1349 482.396 45.5646C484.687 44.9942 486.118 42.7128 486.691 39.2907C485.832 37.2945 485.259 35.2982 483.828 33.8724C481.251 31.0206 476.957 30.4503 475.239 35.8686Z" fill="white"/>
</svg>
