<svg xmlns="http://www.w3.org/2000/svg" viewBox="0 0 1582.2 375.1"><script type="text/javascript"/><g fill="#fff"><path d="M118 325.1c-4.7 12.3-7.2 25.5-7.2 39.1H5.6v-35.5c37.9 1.4 75.4.2 112.4-3.6zm212.1 39.1h105.2V252.1c-32.3 1.1-62.5 6.2-90.4 15.5-7.7 2.6-15.8 5.6-25.2 9.1-7.1 2.7-14.8 5.6-23.2 8.5l1.5 1.5c20.7 20.8 32.1 48.3 32.1 77.5zM220.5 254.7c23.3 0 45.5 7.2 64 20.6 11.3-3.9 21.3-7.7 30.5-11.1 9.1-3.4 17.7-6.7 25.7-9.3 29.2-9.7 60.9-15.1 94.7-16.2v-35.5c-27.1-8.1-53.9-11.6-80-10.5-20.9.9-39.8 4.6-61.7 8.9-29.6 5.8-63.2 12.4-114.4 15.1-57.6 3-115.8-.1-173.4-9.4v108.1c40.2 1.5 79.9 0 119-4.3 4.9-8.7 11-16.8 18.3-24.1 20.4-20.9 48-32.3 77.3-32.3z"/><path d="M587.9 9.1h25.7v46.3h47.5V9.1h25.7v117h-25.7v-47h-47.5v47h-25.7zm-77.5 23.7h-35.6V9.1h97v23.7h-35.6v93.3h-25.7V32.8zM703 9.1h88.3V32h-62.7v23.7h55.2v22.9h-55.2v24.6h63.5v22.9H703zm154.4 0h25.7v46.3h47.5V9.1h25.7v117h-25.7v-47h-47.5v47h-25.7zm115.2 58.8v-.3c0-33.3 26.2-60.5 62.4-60.5 36.1 0 62 26.9 62 60.2v.3c0 33.3-26.2 60.5-62.4 60.5-36.1 0-62-26.9-62-60.2zm97.4 0v-.3c0-20.1-14.7-36.8-35.4-36.8s-35.1 16.4-35.1 36.4v.3c0 20.1 14.7 36.8 35.4 36.8 20.8.1 35.1-16.3 35.1-36.4zm32.6 41.2 15.2-18.2c10.5 8.7 21.6 14.2 34.9 14.2 10.5 0 16.9-4.2 16.9-11v-.3c0-6.5-4-9.9-23.6-14.9-23.6-6-38.8-12.5-38.8-35.8v-.3c0-21.2 17.1-35.3 41-35.3 17.1 0 31.6 5.3 43.5 14.9l-13.4 19.4c-10.4-7.2-20.6-11.5-30.4-11.5-9.9 0-15 4.5-15 10.2v.3c0 7.7 5 10.2 25.2 15.4 23.7 6.2 37.1 14.7 37.1 35.1v.3c0 23.2-17.7 36.3-43 36.3-17.6-.1-35.5-6.3-49.6-18.8zm108.8-100h47.8c27.9 0 44.8 16.5 44.8 40.5v.3c0 27.1-21.1 41.1-47.3 41.1h-19.6v35.1h-25.7zm46.1 59c12.9 0 20.4-7.7 20.4-17.7v-.3c0-11.5-8-17.7-20.9-17.7h-19.9v35.8h20.4zm62.5-59h25.7v117H1320zm41.8 58.8v-.3c0-33.3 25.1-60.5 61-60.5 22.1 0 35.3 7.4 46.1 18.1L1452.6 44c-9-8.2-18.2-13.2-29.9-13.2-19.7 0-33.9 16.4-33.9 36.4v.3c0 20.1 13.9 36.8 33.9 36.8 13.4 0 21.6-5.3 30.8-13.7l16.4 16.6c-12 12.9-25.4 20.9-48 20.9-34.5 0-60.1-26.6-60.1-60.2zm123.1-58.8h89.1V32h-63.5v23.7h55.2v22.9h-55.2v24.6h63.5v22.9h-89.1zM504.3 322.3h4.4l7.6 41.2h-4.7l-1.9-10.8h-22.3l-7.7 10.8h-5.1zm4.7 26.2-3.7-20.9-15 20.9zm51.2-21.7h-13.8l1.2-4.3h32.2l-1.2 4.3h-13.8l-9.8 36.6h-4.6zm18.6 6.5h4.5l-2 7.9c3.7-5.3 8.4-8.8 14.4-8.4l-1.3 4.8h-.4c-6.6 0-13.2 4.8-15.6 14l-3.2 11.9h-4.5zm14.6 22.5c0-2.9 1.1-5.4 2.9-7.2 2.4-2.4 6.1-3.7 10.6-3.7 4 0 7.8.8 10.8 1.6l.2-.7c.2-.9.4-2 .4-2.8 0-3.9-2.7-6.1-8.2-6.1-3.2 0-5.8.6-8.5 1.6l-.8-3.7c3-1.1 6.1-1.8 10-1.8 7.6 0 11.9 3.5 11.9 9.3 0 1.3-.2 2.7-.6 4.1l-4.6 17.1H613l1.3-4.7c-2.8 3.2-6.5 5.4-11.3 5.4-5.1-.1-9.6-3.1-9.6-8.4zm22.9-4.2.6-2.1c-2.6-.8-6.1-1.3-9.8-1.3-3.1 0-5.6.9-7.1 2.5-1.3 1.2-1.9 2.8-1.9 4.6 0 3.2 2.5 5.4 6.4 5.4 5-.1 10.3-3.8 11.8-9.1zm36 6.7c-2.9 3.3-6.6 5.8-11.5 5.8-6.8 0-12-5.1-12-12.8 0-5.6 2.2-10.5 5.6-13.8 3.1-3.1 7.1-4.9 11.3-4.9 6.2 0 9.7 3.5 11.3 7.5l5.1-19.3h4.5l-11.4 42.6h-4.5zm-1.2-2.1c2.6-2.7 4.4-6.4 4.4-10.2 0-5.3-3.8-9.3-9.3-9.3-3.2 0-6.1 1.3-8.3 3.5-2.7 2.7-4.3 6.7-4.3 10.9 0 5.6 3.5 9.2 8.5 9.2 3.2-.1 6.5-1.6 9-4.1zm22.8-22.9h4.5l-8.1 30.2h-4.5zm2.8-11.6h5.1l-1.3 5h-5.1zm7.6 36.3c0-1.1.2-2.2.4-3.2l4.7-17.6h-4.1l1.1-4h4.2l2.5-9.1h4.4l-2.5 9.1h9.5l-1.1 4h-9.5l-4.7 17.4c-.1.7-.2 1.6-.2 2.2 0 2.1 1.6 3.1 4.1 3.1 1.3 0 2.8-.3 4.4-.9l-1.1 4.1c-1.6.6-3 .9-4.8.9-4.3 0-7.3-2.1-7.3-6zm28.5-24.7h4.5l-8.1 30.2h-4.5zm2.8-11.6h5.1l-1.3 5h-5.1zm37.5 24.4c0 4.8-2.1 9.3-5.4 12.7-3.2 3.2-7.7 5.3-12.4 5.3-8.3 0-13.7-5.7-13.7-13.6 0-4.8 2-9.3 5.4-12.7 3.2-3.2 7.6-5.3 12.3-5.3 8.3.1 13.8 5.8 13.8 13.6zm-9 10.3c2.7-2.7 4.3-6.4 4.3-10.1 0-6.1-3.9-9.7-9.5-9.7-3.3 0-6.3 1.5-8.6 3.8-2.6 2.6-4.3 6.4-4.3 10.1 0 6.1 3.9 9.6 9.5 9.6 3.3 0 6.4-1.4 8.6-3.7zm20.9-23.1h4.5l-1.3 4.9c2.7-3.1 5.9-5.6 10.5-5.6 5.8 0 9.6 3.6 9.6 9.4 0 1.4-.3 3.1-.8 4.7l-4.4 16.8h-4.5l4.6-17.1c.3-1 .5-2.4.5-3.4 0-4-2.6-6.3-6.8-6.3-4.7 0-9.3 4-10.9 9.8l-4.6 17.1h-4.5zm78.6 12.8c0 4.8-2.1 9.3-5.4 12.7-3.2 3.2-7.7 5.3-12.4 5.3-8.3 0-13.7-5.7-13.7-13.6 0-4.8 2-9.3 5.4-12.7 3.2-3.2 7.6-5.3 12.3-5.3 8.4.1 13.8 5.8 13.8 13.6zm-8.9 10.3c2.7-2.7 4.3-6.4 4.3-10.1 0-6.1-3.9-9.7-9.5-9.7-3.3 0-6.3 1.5-8.6 3.8-2.6 2.6-4.3 6.4-4.3 10.1 0 6.1 3.9 9.6 9.5 9.6 3.3 0 6.3-1.4 8.6-3.7zm21.3-19.2h-4.2l1.1-4h4.2l.9-3.5c.8-2.9 1.8-4.8 3.3-6.4 1.8-1.8 4.2-2.7 7.1-2.7 2.3 0 4.4.5 6 1.3l-1.1 3.9c-1.8-.8-3.2-1.2-5-1.2-2.9 0-5 1.8-6.1 5.7l-.8 2.9h9.9l-1.1 4h-9.8l-7.1 26.2H849zm51-10.4h-13.8l1.2-4.3h32.2l-1.2 4.3h-13.8l-9.8 36.6h-4.6zm18.5 6.5h4.5l-2 7.9c3.7-5.3 8.4-8.8 14.4-8.4l-1.3 4.8h-.3c-6.6 0-13.2 4.8-15.6 14l-3.2 11.9h-4.5zm17.8 21.5c0-1.4.3-3.1.8-4.7l4.4-16.8h4.5l-4.6 17.1c-.2 1-.4 2.4-.4 3.4 0 4 2.6 6.3 6.7 6.3 4.7 0 9.4-4 10.9-9.8l4.6-17h4.5l-8.1 30.2h-4.5l1.3-4.9c-2.7 3.1-6 5.6-10.6 5.6-5.7-.1-9.5-3.7-9.5-9.4zm32.1 4 2.9-2.9c3.3 3.2 6.9 4.4 10.5 4.4 3.4 0 6.7-2 6.7-5 0-2-1.3-3.4-5.7-5.1-5.4-2.1-8.5-4.1-8.5-8.3 0-5.1 4.4-9.3 11.5-9.3 4.4 0 8.6 2 11.2 4.2l-2.6 3.1c-2.5-2-5.7-3.5-8.9-3.5-4.3 0-6.5 2.3-6.5 4.8 0 2 1.2 3.3 6 5.1 5.4 2.2 8.2 4.4 8.2 8.3 0 5.6-5.1 9.5-11.6 9.5-4.9 0-9.7-1.7-13.2-5.3zm33.2-.8c0-1.1.2-2.2.4-3.2l4.7-17.6h-4.1l1.1-4h4.2l2.5-9.1h4.4l-2.5 9.1h9.5l-1.1 4h-9.5l-4.7 17.4c-.1.7-.2 1.6-.2 2.2 0 2.1 1.6 3.1 4.1 3.1 1.3 0 2.8-.3 4.4-.9l-1.1 4.1c-1.6.6-3 .9-4.8.9-4.3 0-7.3-2.1-7.3-6zm25.7-8.1c-.1.4-.1.8-.1 1.2 0 5.5 3.5 9.1 9.1 9.1 3.9 0 6.5-1.3 9.3-3.6l2.3 3c-3 2.5-6.5 4.5-11.9 4.5-8 0-13.4-5.2-13.4-12.9 0-5 2.2-10 5.7-13.6 3.1-3.1 7.2-5.1 11.9-5.1 7.7 0 11.7 5.3 11.7 11.6 0 2-.4 4-1.1 5.7h-23.5zm.6-3.4h19.5c.2-.5.3-1.3.3-2.3 0-4.1-2.3-7.8-7.5-7.8-3.3 0-6.2 1.5-8.4 3.6-1.9 1.8-3.1 4.1-3.9 6.5zm52.8 11.8c-2.9 3.3-6.6 5.8-11.4 5.8-6.8 0-12-5.1-12-12.8 0-5.6 2.2-10.5 5.6-13.8 3.1-3.1 7.1-4.9 11.3-4.9 6.2 0 9.7 3.5 11.3 7.5l5.1-19.3h4.5l-11.4 42.6h-4.5zm-1.2-2.1c2.6-2.7 4.4-6.4 4.4-10.2 0-5.3-3.8-9.3-9.3-9.3-3.2 0-6.1 1.3-8.3 3.5-2.7 2.7-4.3 6.7-4.3 10.9 0 5.6 3.5 9.2 8.5 9.2 3.2-.1 6.5-1.6 9-4.1zm35.8-8.9c0-6.9 3-13.5 7.7-18.2 4.4-4.4 10.3-7.2 16.8-7.2 7.6 0 12.7 3.7 15.4 8.8l-4 2.5c-2.5-4.3-5.8-7-11.9-7-4.9 0-9.4 2.2-12.8 5.5-4 4-6.5 9.7-6.5 15.5 0 7.9 5.4 12.8 12.8 12.8 5.5 0 9.2-2.2 12.7-5.5l3.1 3c-3.8 3.8-8.6 6.8-16 6.8-9.5-.1-17.3-6.5-17.3-17zm39.1 8.5c0-2.9 1.1-5.4 2.9-7.2 2.4-2.4 6.1-3.7 10.6-3.7 4 0 7.8.8 10.7 1.6l.2-.7c.2-.9.4-2 .4-2.8 0-3.9-2.7-6.1-8.2-6.1-3.2 0-5.8.6-8.5 1.6l-.8-3.7c3-1.1 6.1-1.8 10-1.8 7.6 0 11.9 3.5 11.9 9.3 0 1.3-.2 2.7-.6 4.1l-4.6 17.1h-4.4l1.3-4.7c-2.8 3.2-6.5 5.4-11.3 5.4-5.1-.1-9.6-3.1-9.6-8.4zm22.8-4.2.6-2.1c-2.6-.8-6.1-1.3-9.8-1.3-3.1 0-5.5.9-7.1 2.5-1.3 1.2-1.9 2.8-1.9 4.6 0 3.2 2.5 5.4 6.4 5.4 5-.1 10.4-3.8 11.8-9.1zm18.8-18.3h4.5l-2 7.9c3.7-5.3 8.4-8.8 14.4-8.4l-1.3 4.8h-.3c-6.6 0-13.2 4.8-15.6 14l-3.2 11.9h-4.5zm21.4 16.6c-.1.4-.1.8-.1 1.2 0 5.5 3.5 9.1 9.1 9.1 3.9 0 6.5-1.3 9.3-3.6l2.3 3c-3 2.5-6.5 4.5-11.9 4.5-8 0-13.4-5.2-13.4-12.9 0-5 2.2-10 5.7-13.6 3.1-3.1 7.2-5.1 11.9-5.1 7.7 0 11.7 5.3 11.7 11.6 0 2-.4 4-1.1 5.7h-23.5zm.6-3.4h19.5c.2-.5.3-1.3.3-2.3 0-4.1-2.3-7.8-7.5-7.8-3.3 0-6.2 1.5-8.4 3.6-1.8 1.8-3.1 4.1-3.9 6.5zm44.7 9.8 3.5-2.7c3.4 4.2 7.5 6.4 13.5 6.4 5.9 0 10.3-3.2 10.3-7.7 0-3.2-2.1-5-8.4-7.5-7.5-3-11.2-5.6-11.2-10.9 0-2.8 1.1-5.4 3.2-7.5 2.7-2.7 6.9-4.4 11.9-4.4 6.4 0 11.4 2.6 14.5 6.2l-3.4 3c-3-3.3-6.7-5.1-11.5-5.1-6.1 0-9.8 3.4-9.8 7.2 0 3.3 2.6 5 9.1 7.5 7 2.7 10.6 5.5 10.6 10.8 0 3.1-1.3 5.8-3.3 7.9-2.9 2.9-7.2 4.5-12.1 4.5-7.7.1-13.4-2.9-16.9-7.7zm46-23h4.5l-8.1 30.2h-4.5zm2.8-11.6h5.1l-1.3 5h-5.1zm12.2 11.6h4.5l-1.3 4.9c2.7-3.1 5.9-5.6 10.5-5.6 5.8 0 9.6 3.6 9.6 9.4 0 1.4-.4 3.1-.8 4.7l-4.4 16.8h-4.5l4.6-17.1c.3-1 .5-2.4.5-3.4 0-4-2.6-6.3-6.8-6.3-4.7 0-9.3 4-10.9 9.8l-4.6 17.1h-4.5zm29.5 17.7c0-5 2.1-9.7 5.5-13.1 3.2-3.2 7.6-5.3 12.3-5.3 6.3 0 10.1 3.3 12 7.1l-3.6 2.3c-1.8-2.9-4.1-5.4-8.7-5.4-3.2 0-6.2 1.5-8.5 3.8-2.6 2.6-4.4 6.4-4.4 10.5 0 6 4.3 9.3 9 9.3 3.6 0 6.3-1.6 8.9-4l2.6 2.9c-3.1 2.9-6.8 5-11.8 5-7 .1-13.3-4.8-13.3-13.1zm36.8-1.1c-.1.4-.1.8-.1 1.2 0 5.5 3.5 9.1 9.1 9.1 3.9 0 6.5-1.3 9.3-3.6l2.3 3c-3 2.5-6.5 4.5-11.9 4.5-8 0-13.4-5.2-13.4-12.9 0-5 2.2-10 5.7-13.6 3.1-3.1 7.2-5.1 11.9-5.1 7.7 0 11.7 5.3 11.7 11.6 0 2-.4 4-1.1 5.7H1397zm.5-3.4h19.5c.2-.5.3-1.3.3-2.3 0-4.1-2.3-7.8-7.5-7.8-3.3 0-6.2 1.5-8.4 3.6-1.8 1.8-3.1 4.1-3.9 6.5zm59.1-19.1-8.3 2.4-.1-4 11-3.5h3.4l-11 41.2h-4.6zm7.6 31.2 3-3.2c2.6 2.8 5.7 4.6 9.8 4.6 3.7 0 6.9-1.4 9.9-4.4 3.2-3.2 5.7-8.1 6.3-13-2.1 2.9-6.1 6.1-11.9 6.1-7.9 0-12.9-5.3-12.9-12 0-3.9 1.6-7.5 4.3-10.2 3-2.9 7-4.7 11.7-4.7 4 0 7.6 1.4 9.9 3.7 2.6 2.6 4 6.1 4 11.6 0 8.6-3.3 16.2-8.2 21.1-3.9 3.9-8.2 5.9-13.4 5.9-5.1.1-9.4-2.2-12.5-5.5zm26.3-17.2c1.9-1.8 3-4.4 3-7 0-2.4-.8-4.4-2.3-6-1.8-1.8-4.1-2.6-6.9-2.6-3.3 0-6 1.2-8 3.2-1.9 1.9-3.1 4.6-3.1 7.4-.1 4.3 2.9 8.4 9.2 8.4 3.3 0 6.1-1.4 8.1-3.4zm11.7 11.7c0-6.5 5.3-10.3 11.9-11.4-3.3-1.3-5.9-4.4-5.9-8.5 0-6.1 6.1-11.2 14.8-11.2 8.1 0 13.8 4.4 13.8 10.6 0 5.6-4.4 9.4-10.1 10.6 3.6 1.3 7 4.5 7 9.1 0 6.7-6.8 11.9-16.4 11.9-8.8-.1-15.1-4.9-15.1-11.1zm26.8-1.1c0-4-4.1-7.5-10.6-7.5-7.1 0-11.4 3.8-11.4 8.2-.1 4.3 4.2 7.4 10.7 7.4 6.7 0 11.2-3.4 11.3-8.1zm3.3-19c0-4.1-3.7-7.1-9.3-7.1-6 0-10.1 3.3-10.1 7.7 0 4 3.7 7.1 9.2 7.1 6.5 0 10.2-3.8 10.2-7.7zm28.8 20.8h-21.3l-.6-3.4 30.3-28h4.4l-7.4 27.6h6.4l-1.1 3.9h-6.4l-2.6 9.7h-4.5zm1.1-3.9 5.6-20.9-22.4 20.9zM812.7 230.6h18l-9-21.9zm161.8-26.8c-12 0-20.3 9.5-20.3 21.1v.2c0 11.6 8.5 21.3 20.5 21.3s20.3-9.5 20.3-21.1v-.2c0-11.6-8.5-21.3-20.5-21.3zm215.3.9H1175v19.4h15.1c7.2 0 11.4-3.9 11.4-9.6v-.2c0-6.3-4.4-9.6-11.7-9.6zm-439.5 6.8v-.2c0-4.4-3.5-7-9.8-7h-14.7v14.3h13.7c6.7 0 10.8-2.1 10.8-7.1zm-215.2-7.7c-12 0-20.3 9.5-20.3 21.1v.2c0 11.6 8.5 21.3 20.5 21.3s20.3-9.5 20.3-21.1v-.2c0-11.6-8.5-21.3-20.5-21.3zm208 27.2h-17.2v14.9h17.7c6.6 0 10.5-2.3 10.5-7.3v-.2c0-4.6-3.4-7.4-11-7.4zm529.7-27.2c-12 0-20.3 9.5-20.3 21.1v.2c0 11.6 8.5 21.3 20.5 21.3s20.3-9.5 20.3-21.1v-.2c0-11.6-8.5-21.3-20.5-21.3zm-798.2-37.4v115.9H1574V166.4zm96.6 58.7c0 19.2-15.2 35-36 35-20.9 0-35.9-15.6-35.9-34.8v-.2c0-19.2 15.2-35 36-35 20.9 0 35.9 15.6 35.9 34.8zm73.6-20.3h-36.6v14.4h32.3v13.5h-32.3v26.2h-14.9v-67.7h51.5zm124.1 35.5c0 12.4-10.1 18.6-25.3 18.6h-32.2v-67.7h31.4c7.7 0 13.8 2.1 17.7 6 3.1 3.1 4.6 6.9 4.6 11.5v.2c0 7.6-4.1 11.9-8.9 14.6 7.8 3 12.7 7.5 12.7 16.6zm73.2 18.6-6.2-15.2h-28.6l-6.2 15.2H786l29-68.1h13.7l29 68.1zm79-53.9h-20.6v53.9h-14.9V205H865v-13.7h56.1zm89.5 20.1c0 19.2-15.2 35-36.1 35s-35.9-15.6-35.9-34.8v-.2c0-19.2 15.2-35 36.1-35s35.9 15.6 35.9 34.8zm82.4 33.8h-12.7l-32.8-43v43h-14.7v-67.7h13.7l31.7 41.7v-41.7h14.7v67.7zm108.2 0-14.5-21.6H1175v21.6h-14.9v-67.7h30.9c8.6 0 15.3 2.4 19.7 6.9 3.8 3.8 5.8 9.1 5.8 15.5v.2c0 10.9-5.9 17.8-14.5 21l16.5 24.2h-17.3zm107.6-33.8c0 19.2-15.2 35-36.1 35s-35.9-15.6-35.9-34.8v-.2c0-19.2 15.2-35 36-35 20.9 0 35.9 15.6 35.9 34.8v.2zm79.1 4.3c0 20.5-11.5 30.5-29.7 30.5s-29.3-10.1-29.3-30.1v-38.7h14.9v38.3c0 11 5.5 16.7 14.6 16.7s14.6-5.5 14.6-16.2v-38.8h14.9zm85.6 19.9c-7 5.9-16.5 10.7-28.9 10.7-21.1 0-35.6-14.8-35.6-34.8v-.2c0-19.2 15-35 35.5-35 12.2 0 19.5 3.3 26.6 9.3l-9.4 11.3c-5.2-4.4-9.9-6.9-17.7-6.9-10.8 0-19.4 9.6-19.4 21.1v.2c0 12.4 8.5 21.5 20.5 21.5 5.4 0 10.2-1.4 14-4.1v-9.7h-15V220h29.4zm75.8 9.6h-51.5v-67.7h51v13.2h-36.2v13.7h31.9v13.2h-31.9v14.2h36.7zM316.1 364.2c-.1-52.8-42.9-95.5-95.7-95.5s-95.6 42.8-95.7 95.5zM46.2 142.7c45.4-2.2 114.3-10.8 184.6-39.3 72.4-29.3 136.2-38.3 177-40.7 10.1-.6 19.3-.8 27.5-.8V9.1H5.6v134.2c11.7.2 25.3.2 40.6-.6z"/><path d="M178.4 203.3c50.3-2.6 83.4-9.1 112.6-14.8 22.4-4.4 41.8-8.2 63.7-9.1 26.4-1.1 53.4 2.3 80.6 10V76.7c-8.1 0-17.2.2-27.1.8-39.5 2.4-101.4 11.1-171.7 39.6-72.5 29.4-143.3 38.2-190 40.5-10.8.5-20.8.7-29.8.7-3.9 0-7.6 0-11.1-.1v35.5c57.4 9.4 115.4 12.6 172.8 9.6z"/></g></svg>