<svg width="45" height="45" viewBox="0 0 45 45" fill="none" xmlns="http://www.w3.org/2000/svg">
<circle cx="22.5" cy="22.5" r="22.5" fill="url(#paint0_linear)"/>
<path fill-rule="evenodd" clip-rule="evenodd" d="M23 15.0037C23 13.1467 20.69 12.2927 19.481 13.7027L15.84 17.9507C15.7461 18.0605 15.6296 18.1486 15.4984 18.209C15.3672 18.2694 15.2244 18.3007 15.08 18.3007H15C14.2044 18.3007 13.4413 18.6168 12.8787 19.1794C12.3161 19.742 12 20.5051 12 21.3007V23.3007C12 24.0964 12.3161 24.8594 12.8787 25.422C13.4413 25.9846 14.2044 26.3007 15 26.3007H15.08C15.2244 26.3007 15.3672 26.332 15.4984 26.3924C15.6296 26.4528 15.7461 26.541 15.84 26.6507L16.552 26.0387L15.839 26.6497L19.481 30.8997C20.69 32.3097 23 31.4547 23 29.5977V15.0037ZM26.293 19.5937C26.4805 19.4062 26.7348 19.3009 27 19.3009C27.2652 19.3009 27.5195 19.4062 27.707 19.5937L29 20.8867L30.293 19.5937C30.3852 19.4982 30.4956 19.422 30.6176 19.3696C30.7396 19.3172 30.8708 19.2896 31.0036 19.2885C31.1364 19.2873 31.2681 19.3126 31.391 19.3629C31.5138 19.4132 31.6255 19.4874 31.7194 19.5813C31.8133 19.6752 31.8875 19.7869 31.9378 19.9098C31.9881 20.0327 32.0134 20.1643 32.0123 20.2971C32.0111 20.4299 31.9835 20.5611 31.9311 20.6831C31.8787 20.8051 31.8025 20.9155 31.707 21.0077L30.414 22.3007L31.707 23.5937C31.8892 23.7823 31.99 24.0349 31.9877 24.2971C31.9854 24.5593 31.8802 24.8101 31.6948 24.9955C31.5094 25.1809 31.2586 25.2861 30.9964 25.2884C30.7342 25.2907 30.4816 25.1899 30.293 25.0077L29 23.7147L27.707 25.0077C27.5184 25.1899 27.2658 25.2907 27.0036 25.2884C26.7414 25.2861 26.4906 25.1809 26.3052 24.9955C26.1198 24.8101 26.0146 24.5593 26.0123 24.2971C26.01 24.0349 26.1108 23.7823 26.293 23.5937L27.586 22.3007L26.293 21.0077C26.1055 20.8202 26.0002 20.5659 26.0002 20.3007C26.0002 20.0356 26.1055 19.7812 26.293 19.5937Z" fill="#71591B"/>
<defs>
<linearGradient id="paint0_linear" x1="-1.03079e-07" y1="22.8689" x2="45" y2="22.8689" gradientUnits="userSpaceOnUse">
<stop stop-color="#DEBF8D"/>
<stop offset="0.359304" stop-color="#FFE6AB"/>
<stop offset="0.684917" stop-color="#DEBF8D"/>
<stop offset="1" stop-color="#D3A87E"/>
<stop offset="1" stop-color="#DFCA92"/>
</linearGradient>
</defs>
</svg>
