<svg width="45" height="45" viewBox="0 0 45 45" fill="none" xmlns="http://www.w3.org/2000/svg">
<circle cx="22.5" cy="22.5" r="22.5" fill="url(#paint0_linear)"/>
<path fill-rule="evenodd" clip-rule="evenodd" d="M15.08 19.2984H15C14.4696 19.2984 13.9609 19.5091 13.5858 19.8842C13.2107 20.2592 13 20.7679 13 21.2984V23.2984C13 23.8288 13.2107 24.3375 13.5858 24.7126C13.9609 25.0877 14.4696 25.2984 15 25.2984H15.08C15.3686 25.2983 15.6537 25.3606 15.9159 25.4811C16.1781 25.6015 16.4111 25.7773 16.599 25.9964L20.241 30.2464C20.845 30.9504 22 30.5234 22 29.5954V15.0014C22 14.0734 20.845 13.6464 20.24 14.3514L16.6 18.5994C16.4121 18.8187 16.179 18.9948 15.9166 19.1154C15.6542 19.2361 15.3688 19.2985 15.08 19.2984ZM28.636 14.5734C28.5414 14.4801 28.4291 14.4066 28.3057 14.3572C28.1823 14.3079 28.0504 14.2836 27.9175 14.2858C27.7847 14.288 27.6536 14.3166 27.5319 14.3701C27.4102 14.4235 27.3005 14.5007 27.209 14.597C27.1174 14.6934 27.0461 14.807 26.999 14.9312C26.9519 15.0555 26.93 15.1879 26.9347 15.3207C26.9394 15.4535 26.9704 15.584 27.0261 15.7047C27.0818 15.8253 27.161 15.9337 27.259 16.0234C30.914 19.4954 30.914 25.1014 27.259 28.5734C27.161 28.6631 27.0818 28.7714 27.0261 28.8921C26.9704 29.0127 26.9394 29.1433 26.9347 29.2761C26.93 29.4089 26.9519 29.5413 26.999 29.6655C27.0461 29.7898 27.1174 29.9034 27.209 29.9997C27.3005 30.0961 27.4102 30.1733 27.5319 30.2267C27.6536 30.2801 27.7847 30.3088 27.9175 30.311C28.0504 30.3132 28.1823 30.2889 28.3057 30.2395C28.4291 30.1901 28.5414 30.1166 28.636 30.0234C33.121 25.7634 33.121 18.8334 28.636 14.5734ZM25.689 17.3734C25.4967 17.1906 25.2397 17.0918 24.9745 17.0985C24.7094 17.1053 24.4577 17.2171 24.275 17.4094C24.0923 17.6017 23.9934 17.8587 24.0002 18.1238C24.0069 18.389 24.1187 18.6406 24.311 18.8234C26.338 20.7484 26.338 23.8484 24.311 25.7734C24.2158 25.8639 24.1393 25.9722 24.086 26.0922C24.0327 26.2123 24.0035 26.3416 24.0002 26.4729C23.9968 26.6042 24.0194 26.7349 24.0665 26.8575C24.1137 26.9801 24.1845 27.0922 24.275 27.1874C24.4577 27.3797 24.7094 27.4915 24.9745 27.4982C25.1058 27.5016 25.2365 27.479 25.3591 27.4319C25.4817 27.3847 25.5938 27.3139 25.689 27.2234C28.546 24.5094 28.546 20.0874 25.689 17.3734Z" fill="#71591B"/>
<defs>
<linearGradient id="paint0_linear" x1="-1.03079e-07" y1="22.8689" x2="45" y2="22.8689" gradientUnits="userSpaceOnUse">
<stop stop-color="#DEBF8D"/>
<stop offset="0.359304" stop-color="#FFE6AB"/>
<stop offset="0.684917" stop-color="#DEBF8D"/>
<stop offset="1" stop-color="#D3A87E"/>
<stop offset="1" stop-color="#DFCA92"/>
</linearGradient>
</defs>
</svg>
