<svg viewBox="0 0 584 778" fill="none" xmlns="http://www.w3.org/2000/svg">
    <ellipse rx="16.159" ry="16.157" transform="rotate(-29.993 1678.642 -672.687) skewX(.013)" fill="url(#a)" />
    <ellipse rx="16.159" ry="16.157" transform="rotate(-29.993 1327.712 311.52) skewX(.013)" fill="url(#b)" />
    <ellipse rx="16.159" ry="16.157" transform="rotate(-29.993 1666.742 -605.861) skewX(.013)" fill="url(#c)" />
    <ellipse rx="16.159" ry="16.157" transform="rotate(-29.993 1412.775 312.302) skewX(.013)" fill="url(#d)" />
    <ellipse rx="16.159" ry="16.157" transform="rotate(-29.993 1620.471 -418.216) skewX(.013)" fill="url(#e)" />
    <ellipse rx="16.159" ry="16.157" transform="rotate(-29.993 1562.974 -203.573) skewX(.013)" fill="url(#f)" />
    <ellipse rx="16.159" ry="16.157" transform="rotate(-29.993 1637.076 -473.392) skewX(.013)" fill="url(#g)" />
    <ellipse rx="16.159" ry="16.157" transform="rotate(-29.993 1492.886 14.915) skewX(.013)" fill="url(#h)" />
    <ellipse rx="16.159" ry="16.157" transform="rotate(-29.993 1501.381 -83.794) skewX(.013)" fill="url(#i)" />
    <ellipse rx="16.159" ry="16.157" transform="rotate(-29.993 1444.286 177.204) skewX(.013)" fill="url(#j)" />
    <ellipse rx="16.159" ry="16.157" transform="rotate(-29.993 1573.956 -323.98) skewX(.013)" fill="url(#k)" />
    <ellipse rx="16.159" ry="16.157" transform="rotate(-29.993 1586.568 -375.9) skewX(.013)" fill="url(#l)" />
    <ellipse rx="16.159" ry="16.157" transform="rotate(-29.993 1458.79 88.69) skewX(.013)" fill="url(#m)" />
    <ellipse rx="16.159" ry="16.157" transform="rotate(-29.993 1339.743 243.959) skewX(.013)" fill="url(#n)" />
    <ellipse rx="16.159" ry="16.157" transform="rotate(-29.993 1609.512 -519.172) skewX(.013)" fill="url(#o)" />
    <ellipse rx="16.159" ry="16.157" transform="rotate(-29.993 1520.3 -158.174) skewX(.013)" fill="url(#p)" />
    <ellipse rx="16.159" ry="16.157" transform="rotate(-29.993 1531.623 -252.16) skewX(.013)" fill="url(#q)" />
    <ellipse rx="16.159" ry="16.157" transform="rotate(-29.993 1556.912 -457.246) skewX(.013)" fill="url(#r)" />
    <ellipse rx="16.159" ry="16.157" transform="rotate(-29.993 1582.919 -666.324) skewX(.013)" fill="url(#s)" />
    <ellipse rx="16.159" ry="16.157" transform="rotate(-29.993 1607.881 -617.628) skewX(.013)" fill="url(#t)" />
    <ellipse rx="16.159" ry="16.157" transform="rotate(-29.993 1529.17 -363.699) skewX(.013)" fill="url(#u)" />
    <ellipse rx="16.159" ry="16.157" transform="rotate(-29.993 1456.642 -142.904) skewX(.013)" fill="url(#v)" />
    <ellipse rx="16.159" ry="16.157" transform="rotate(-29.993 1410.907 44.568) skewX(.013)" fill="url(#w)" />
    <ellipse rx="16.159" ry="16.157" transform="rotate(-29.993 1383.978 161.049) skewX(.013)" fill="url(#x)" />
    <ellipse rx="16.159" ry="16.157" transform="rotate(-29.993 1431.636 -34.086) skewX(.013)" fill="url(#y)" />
    <ellipse rx="16.159" ry="16.157" transform="rotate(-29.993 1457.433 -216.595) skewX(.013)" fill="url(#z)" />
    <ellipse rx="16.159" ry="16.157" transform="rotate(-29.993 1466.422 -455.483) skewX(.013)" fill="url(#A)" />
    <ellipse rx="16.159" ry="16.157" transform="rotate(-29.993 1389.615 208.78) skewX(.013)" fill="url(#B)" />
    <ellipse rx="16.159" ry="16.157" transform="rotate(-29.993 1471.579 -374.532) skewX(.013)" fill="url(#C)" />
    <ellipse rx="16.159" ry="16.157" transform="rotate(-29.993 1519.822 -523.085) skewX(.013)" fill="url(#D)" />
    <ellipse rx="16.159" ry="16.157" transform="rotate(-29.993 1446.788 -307.118) skewX(.013)" fill="url(#E)" />
    <ellipse rx="16.159" ry="16.157" transform="rotate(-29.993 1396.978 -96.053) skewX(.013)" fill="url(#F)" />
    <ellipse rx="16.159" ry="16.157" transform="rotate(-29.993 1522.124 -618.597) skewX(.013)" fill="url(#G)" />
    <ellipse rx="16.159" ry="16.157" transform="rotate(-29.993 1324.264 108.09) skewX(.013)" fill="url(#H)" />
    <ellipse rx="16.159" ry="16.157" transform="rotate(-29.993 1352.288 -13.762) skewX(.013)" fill="url(#I)" />
    <ellipse rx="16.159" ry="16.157" transform="rotate(-29.993 1336.121 46.588) skewX(.013)" fill="url(#J)" />
    <ellipse rx="16.159" ry="16.157" transform="rotate(-29.993 1409.182 -243.382) skewX(.013)" fill="url(#K)" />
    <ellipse rx="16.159" ry="16.157" transform="rotate(-29.993 1276.777 164.67) skewX(.013)" fill="url(#L)" />
    <ellipse rx="16.159" ry="16.157" transform="rotate(-29.993 1573.083 -554.936) skewX(.013)" fill="url(#M)" />
    <ellipse rx="16.159" ry="16.157" transform="rotate(-29.993 1467.928 -573.104) skewX(.013)" fill="url(#N)" />
    <ellipse rx="16.159" ry="16.157" transform="rotate(-29.993 1427.195 -418.594) skewX(.013)" fill="url(#O)" />
    <ellipse rx="16.159" ry="16.157" transform="rotate(-29.993 1362.556 -177.303) skewX(.013)" fill="url(#P)" />
    <ellipse rx="16.159" ry="16.157" transform="rotate(-29.993 1316.162 -104.238) skewX(.013)" fill="url(#Q)" />
    <ellipse rx="16.159" ry="16.157" transform="rotate(-29.993 1482.41 -671.905) skewX(.013)" fill="url(#R)" />
    <ellipse rx="16.159" ry="16.157" transform="rotate(-29.993 1285.562 28.423) skewX(.013)" fill="url(#S)" />
    <ellipse rx="16.159" ry="16.157" transform="rotate(-29.993 1384.027 -356.38) skewX(.013)" fill="url(#T)" />
    <ellipse rx="16.159" ry="16.157" transform="rotate(-29.993 1295.42 -42.857) skewX(.013)" fill="url(#U)" />
    <ellipse rx="16.159" ry="16.157" transform="rotate(-29.993 1263.086 77.843) skewX(.013)" fill="url(#V)" />
    <ellipse rx="16.159" ry="16.157" transform="rotate(-29.993 468.696 -474.886) skewX(.013)" fill="url(#W)" />
    <ellipse rx="16.159" ry="16.157" transform="rotate(-29.993 1440.145 -673.735) skewX(.013)" fill="url(#X)" />
    <ellipse rx="16.159" ry="16.157" transform="rotate(-29.993 1415.366 -615.722) skewX(.013)" fill="url(#Y)" />
    <ellipse rx="16.159" ry="16.157" transform="rotate(-29.993 1399.206 -555.396) skewX(.013)" fill="url(#Z)" />
    <ellipse rx="16.159" ry="16.157" transform="rotate(-29.993 1348.17 -447.154) skewX(.013)" fill="url(#aa)" />
    <ellipse rx="16.159" ry="16.157" transform="rotate(-29.993 1334.567 -314.104) skewX(.013)" fill="url(#ab)" />
    <ellipse rx="16.159" ry="16.157" transform="rotate(-29.993 1318.407 -253.782) skewX(.013)" fill="url(#ac)" />
    <ellipse rx="16.159" ry="16.157" transform="rotate(-29.993 1283.872 -184.7) skewX(.013)" fill="url(#ad)" />
    <ellipse rx="16.159" ry="16.157" transform="rotate(-29.993 1216.22 118.083) skewX(.013)" fill="url(#ae)" />
    <ellipse rx="16.159" ry="16.157" transform="rotate(-29.993 1246.945 -120.522) skewX(.013)" fill="url(#af)" />
    <ellipse rx="16.159" ry="16.157" transform="rotate(-29.993 1198.445 60.526) skewX(.013)" fill="url(#ag)" />
    <ellipse rx="16.159" ry="16.157" transform="rotate(-29.993 1209.147 3.333) skewX(.013)" fill="url(#ah)" />
    <ellipse rx="16.159" ry="16.157" transform="rotate(-29.993 539.686 -526.049) skewX(.013)" fill="url(#ai)" />
    <ellipse rx="16.159" ry="16.157" transform="rotate(-29.993 1305.61 -391.247) skewX(.013)" fill="url(#aj)" />
    <ellipse rx="16.159" ry="16.157" transform="rotate(-29.993 1303.043 -495.25) skewX(.013)" fill="url(#ak)" />
    <ellipse rx="16.159" ry="16.157" transform="rotate(-29.993 1211.23 -56.169) skewX(.013)" fill="url(#al)" />
    <ellipse rx="16.159" ry="16.157" transform="rotate(-29.993 1270.431 -294.412) skewX(.013)" fill="url(#am)" />
    <ellipse rx="16.159" ry="16.157" transform="rotate(-29.993 1254.272 -395.772) skewX(.013)" fill="url(#an)" />
    <ellipse rx="16.159" ry="16.157" transform="rotate(-29.993 1334.874 -586.689) skewX(.013)" fill="url(#ao)" />
    <ellipse rx="16.159" ry="16.157" transform="rotate(-29.993 1139.119 56.734) skewX(.013)" fill="url(#ap)" />
    <ellipse rx="16.159" ry="16.157" transform="rotate(-29.993 1380.771 -663.661) skewX(.013)" fill="url(#aq)" />
    <ellipse rx="16.159" ry="16.157" transform="rotate(-29.993 1302.624 -535.268) skewX(.013)" fill="url(#ar)" />
    <ellipse rx="16.159" ry="16.157" transform="rotate(-29.993 1250.658 -341.287) skewX(.013)" fill="url(#as)" />
    <ellipse rx="16.159" ry="16.157" transform="rotate(-29.993 1184.61 -146.46) skewX(.013)" fill="url(#at)" />
    <ellipse rx="16.159" ry="16.157" transform="rotate(-29.993 1159.826 -88.42) skewX(.013)" fill="url(#au)" />
    <ellipse rx="16.159" ry="16.157" transform="rotate(-29.993 1240.432 -441.048) skewX(.013)" fill="url(#av)" />
    <ellipse rx="16.159" ry="16.157" transform="rotate(-29.993 457.832 -547.977) skewX(.013)" fill="url(#aw)" />
    <ellipse rx="16.159" ry="16.157" transform="rotate(-29.993 1141.417 -247.545) skewX(.013)" fill="url(#ax)" />
    <ellipse rx="16.159" ry="16.157" transform="rotate(-29.993 1198.633 -336.745) skewX(.013)" fill="url(#ay)" />
    <ellipse rx="16.159" ry="16.157" transform="rotate(-29.993 1263.076 -629.021) skewX(.013)" fill="url(#az)" />
    <ellipse rx="16.159" ry="16.157" transform="rotate(-29.993 1111.574 -115.206) skewX(.013)" fill="url(#aA)" />
    <ellipse rx="16.159" ry="16.157" transform="rotate(-29.993 1085.808 27.044) skewX(.013)" fill="url(#aB)" />
    <ellipse rx="16.159" ry="16.157" transform="rotate(-29.993 1227.897 -532.186) skewX(.013)" fill="url(#aC)" />
    <ellipse rx="16.159" ry="16.157" transform="rotate(-29.993 1130.46 -189.89) skewX(.013)" fill="url(#aD)" />
    <ellipse rx="16.159" ry="16.157" transform="rotate(-29.993 394.855 -532.817) skewX(.013)" fill="url(#aE)" />
    <ellipse rx="16.159" ry="16.157" transform="rotate(-29.993 347.433 -460.732) skewX(.013)" fill="url(#aF)" />
    <ellipse rx="16.159" ry="16.157" transform="rotate(-29.993 292.07 -465.451) skewX(.013)" fill="url(#aG)" />
    <ellipse rx="16.159" ry="16.157" transform="rotate(-29.993 1215.587 -572.445) skewX(.013)" fill="url(#aH)" />
    <ellipse rx="16.159" ry="16.157" transform="rotate(-29.993 1084.194 -288.862) skewX(.013)" fill="url(#aI)" />
    <ellipse rx="16.159" ry="16.157" transform="rotate(-29.993 1193.028 -453.747) skewX(.013)" fill="url(#aJ)" />
    <ellipse rx="16.159" ry="16.157" transform="rotate(-29.993 1163.93 -396.861) skewX(.013)" fill="url(#aK)" />
    <ellipse rx="16.159" ry="16.157" transform="rotate(-29.993 1074.705 -46.543) skewX(.013)" fill="url(#aL)" />
    <ellipse rx="16.159" ry="16.157" transform="rotate(-29.993 1069.942 -149.459) skewX(.013)" fill="url(#aM)" />
    <ellipse rx="16.159" ry="16.157" transform="rotate(-29.993 654.96 -528.347) skewX(.013)" fill="url(#aN)" />
    <ellipse rx="16.159" ry="16.157" transform="rotate(-29.993 1077.49 -212.116) skewX(.013)" fill="url(#aO)" />
    <ellipse rx="16.159" ry="16.157" transform="rotate(-29.993 1018.908 -10.672) skewX(.013)" fill="url(#aP)" />
    <ellipse rx="16.159" ry="16.157" transform="rotate(-29.993 1145.086 -498.93) skewX(.013)" fill="url(#aQ)" />
    <ellipse rx="16.159" ry="16.157" transform="rotate(-29.993 1199.016 -604.728) skewX(.013)" fill="url(#aR)" />
    <ellipse rx="16.159" ry="16.157" transform="rotate(-29.993 1031.074 -90.571) skewX(.013)" fill="url(#aS)" />
    <ellipse rx="16.159" ry="16.157" transform="rotate(-29.993 367.823 -574.593) skewX(.013)" fill="url(#aT)" />
    <ellipse rx="16.159" ry="16.157" transform="rotate(-29.993 1154.1 -584.296) skewX(.013)" fill="url(#aU)" />
    <ellipse rx="16.159" ry="16.157" transform="rotate(-29.993 640.735 -582.697) skewX(.013)" fill="url(#aV)" />
    <ellipse rx="16.159" ry="16.157" transform="rotate(-29.993 1109.499 -439.05) skewX(.013)" fill="url(#aW)" />
    <ellipse rx="16.159" ry="16.157" transform="rotate(-29.993 1071.35 -361.602) skewX(.013)" fill="url(#aX)" />
    <ellipse rx="16.159" ry="16.157" transform="rotate(-29.993 1044.79 -262.458) skewX(.013)" fill="url(#aY)" />
    <ellipse rx="16.159" ry="16.157" transform="rotate(-29.993 1016.537 -191.485) skewX(.013)" fill="url(#aZ)" />
    <ellipse rx="16.159" ry="16.157" transform="rotate(-29.993 1002.68 -139.758) skewX(.013)" fill="url(#ba)" />
    <ellipse rx="16.159" ry="16.157" transform="rotate(-29.993 1113.848 -571.98) skewX(.013)" fill="url(#bb)" />
    <ellipse rx="16.159" ry="16.157" transform="rotate(-29.993 968.924 -221.436) skewX(.013)" fill="url(#bc)" />
    <ellipse rx="16.159" ry="16.157" transform="rotate(-29.993 589.163 -541.354) skewX(.013)" fill="url(#bd)" />
    <ellipse rx="16.159" ry="16.157" transform="rotate(-29.993 1039.8 -416.253) skewX(.013)" fill="url(#be)" />
    <ellipse rx="16.159" ry="16.157" transform="rotate(-29.993 847.448 -131.201) skewX(.013)" fill="url(#bf)" />
    <ellipse rx="16.159" ry="16.157" transform="rotate(-29.993 958.348 -77.713) skewX(.013)" fill="url(#bg)" />
    <ellipse rx="16.159" ry="16.157" transform="rotate(-29.993 933.859 -33.858) skewX(.013)" fill="url(#bh)" />
    <ellipse rx="16.159" ry="16.157" transform="rotate(-29.993 248.989 -555.573) skewX(.013)" fill="url(#bi)" />
    <ellipse rx="16.159" ry="16.157" transform="rotate(-29.993 1097.67 -636.174) skewX(.013)" fill="url(#bj)" />
    <ellipse rx="16.159" ry="16.157" transform="rotate(-29.993 1000.712 -274.236) skewX(.013)" fill="url(#bk)" />
    <ellipse rx="16.159" ry="16.157" transform="rotate(-29.993 953.924 23.302) skewX(.013)" fill="url(#bl)" />
    <ellipse rx="16.159" ry="16.157" transform="rotate(-29.993 611.171 -378.59) skewX(.013)" fill="url(#bm)" />
    <ellipse rx="16.159" ry="16.157" transform="rotate(-29.993 1069.599 -579.213) skewX(.013)" fill="url(#bn)" />
    <ellipse rx="16.159" ry="16.157" transform="rotate(-29.993 1070.36 -495.846) skewX(.013)" fill="url(#bo)" />
    <ellipse rx="16.159" ry="16.157" transform="rotate(-29.993 1002.931 -347.59) skewX(.013)" fill="url(#bp)" />
    <ellipse rx="16.159" ry="16.157" transform="rotate(-29.993 844.816 -82.778) skewX(.013)" fill="url(#bq)" />
    <ellipse rx="16.159" ry="16.157" transform="rotate(-29.993 993.406 -553.422) skewX(.013)" fill="url(#br)" />
    <ellipse rx="16.159" ry="16.157" transform="rotate(-29.993 933.419 -139.833) skewX(.013)" fill="url(#bs)" />
    <ellipse rx="16.159" ry="16.157" transform="rotate(-29.993 937.36 -309.715) skewX(.013)" fill="url(#bt)" />
    <ellipse rx="16.159" ry="16.157" transform="rotate(-29.993 1001.1 -495.923) skewX(.013)" fill="url(#bu)" />
    <ellipse rx="16.159" ry="16.157" transform="rotate(-29.993 927.193 -220.038) skewX(.013)" fill="url(#bv)" />
    <ellipse rx="16.159" ry="16.157" transform="rotate(-29.993 549.226 -392.723) skewX(.013)" fill="url(#bw)" />
    <ellipse rx="16.159" ry="16.157" transform="rotate(-29.993 963.92 -408.861) skewX(.013)" fill="url(#bx)" />
    <ellipse rx="16.159" ry="16.157" transform="rotate(-29.993 781.593 -113.311) skewX(.013)" fill="url(#by)" />
    <ellipse rx="16.159" ry="16.157" transform="rotate(-29.993 1013.885 -612.618) skewX(.013)" fill="url(#bz)" />
    <ellipse rx="16.159" ry="16.157" transform="rotate(-29.993 916.873 -106.602) skewX(.013)" fill="url(#bA)" />
    <ellipse rx="16.159" ry="16.157" transform="rotate(-29.993 1212.624 206.883) skewX(.013)" fill="url(#bB)" />
    <ellipse rx="16.159" ry="16.157" transform="rotate(-29.993 880.099 -251.136) skewX(.013)" fill="url(#bC)" />
    <ellipse rx="16.159" ry="16.157" transform="rotate(-29.993 1096.042 106.086) skewX(.013)" fill="url(#bD)" />
    <ellipse rx="16.159" ry="16.157" transform="rotate(-29.993 502.13 -423.82) skewX(.013)" fill="url(#bE)" />
    <ellipse rx="16.159" ry="16.157" transform="rotate(-29.993 441.242 -403.243) skewX(.013)" fill="url(#bF)" />
    <ellipse rx="16.159" ry="16.157" transform="rotate(-29.993 387.902 -415.512) skewX(.013)" fill="url(#bG)" />
    <ellipse rx="16.159" ry="16.157" transform="rotate(-29.993 936.654 -614.337) skewX(.013)" fill="url(#bH)" />
    <ellipse rx="16.159" ry="16.157" transform="rotate(-29.993 928.577 -487.517) skewX(.013)" fill="url(#bI)" />
    <ellipse rx="16.159" ry="16.157" transform="rotate(-29.993 896.258 -366.871) skewX(.013)" fill="url(#bJ)" />
    <ellipse rx="16.159" ry="16.157" transform="rotate(-29.993 834.61 -184.782) skewX(.013)" fill="url(#bK)" />
    <ellipse rx="16.159" ry="16.157" transform="rotate(-29.993 1165.568 146.738) skewX(.013)" fill="url(#bL)" />
    <ellipse rx="16.159" ry="16.157" transform="rotate(-29.993 919.836 -554.651) skewX(.013)" fill="url(#bM)" />
    <ellipse rx="16.159" ry="16.157" transform="rotate(-29.993 888.657 -438.263) skewX(.013)" fill="url(#bN)" />
    <ellipse rx="16.159" ry="16.157" transform="rotate(-29.993 688.657 -207.26) skewX(.013)" fill="url(#bO)" />
    <ellipse rx="16.159" ry="16.157" transform="rotate(-29.993 855.17 -313.255) skewX(.013)" fill="url(#bP)" />
    <ellipse rx="16.159" ry="16.157" transform="rotate(-29.993 308.01 -540.054) skewX(.013)" fill="url(#bQ)" />
    <ellipse rx="16.159" ry="16.157" transform="rotate(-29.993 272.719 -517.21) skewX(.013)" fill="url(#bR)" />
    <ellipse rx="16.159" ry="16.157" transform="rotate(-29.993 190.728 -547.176) skewX(.013)" fill="url(#bS)" />
    <ellipse rx="16.159" ry="16.157" transform="rotate(-29.993 779.186 -464.394) skewX(.013)" fill="url(#bT)" />
    <ellipse rx="16.159" ry="16.157" transform="rotate(-29.993 875.502 -492.607) skewX(.013)" fill="url(#bU)" />
    <ellipse rx="16.159" ry="16.157" transform="rotate(-29.993 806.837 -270.762) skewX(.013)" fill="url(#bV)" />
    <ellipse rx="16.159" ry="16.157" transform="rotate(-29.993 653.423 -198.767) skewX(.013)" fill="url(#bW)" />
    <ellipse rx="16.159" ry="16.157" transform="rotate(-29.993 838.323 -405.548) skewX(.013)" fill="url(#bX)" />
    <ellipse rx="16.159" ry="16.157" transform="rotate(-29.993 775.944 -239.98) skewX(.013)" fill="url(#bY)" />
    <ellipse rx="16.159" ry="16.157" transform="rotate(-29.993 1041.245 51.013) skewX(.013)" fill="url(#bZ)" />
    <ellipse rx="16.159" ry="16.157" transform="rotate(-29.993 862.658 -565.348) skewX(.013)" fill="url(#ca)" />
    <ellipse rx="16.159" ry="16.157" transform="rotate(-29.993 794.3 -361.902) skewX(.013)" fill="url(#cb)" />
    <ellipse rx="16.159" ry="16.157" transform="rotate(-29.993 565.444 -293.12) skewX(.013)" fill="url(#cc)" />
    <ellipse rx="16.159" ry="16.157" transform="rotate(-29.993 827.253 -519.393) skewX(.013)" fill="url(#cd)" />
    <ellipse rx="16.159" ry="16.157" transform="rotate(-29.993 709.522 -260.018) skewX(.013)" fill="url(#ce)" />
    <ellipse rx="16.159" ry="16.157" transform="rotate(-29.993 751.825 -410.24) skewX(.013)" fill="url(#cf)" />
    <ellipse rx="16.159" ry="16.157" transform="rotate(-29.993 719.8 -307.937) skewX(.013)" fill="url(#cg)" />
    <ellipse rx="16.159" ry="16.157" transform="rotate(-29.993 688.71 -366.577) skewX(.013)" fill="url(#ch)" />
    <ellipse rx="16.159" ry="16.157" transform="rotate(-29.993 763.455 -522.623) skewX(.013)" fill="url(#ci)" />
    <ellipse rx="16.159" ry="16.157" transform="rotate(-29.993 774.467 -598.215) skewX(.013)" fill="url(#cj)" />
    <ellipse rx="16.159" ry="16.157" transform="rotate(-29.993 566.675 -430.685) skewX(.013)" fill="url(#ck)" />
    <ellipse rx="16.159" ry="16.157" transform="rotate(-29.993 500.04 -320.752) skewX(.013)" fill="url(#cl)" />
    <ellipse rx="16.159" ry="16.157" transform="rotate(-29.993 707.885 -435.872) skewX(.013)" fill="url(#cm)" />
    <ellipse rx="16.159" ry="16.157" transform="rotate(-29.993 637.993 -445.243) skewX(.013)" fill="url(#cn)" />
    <ellipse rx="16.159" ry="16.157" transform="rotate(-29.993 553.258 -480.677) skewX(.013)" fill="url(#co)" />
    <ellipse rx="16.159" ry="16.157" transform="rotate(-29.993 709.968 -495.374) skewX(.013)" fill="url(#cp)" />
    <ellipse rx="16.159" ry="16.157" transform="rotate(-29.993 605.638 -240.72) skewX(.013)" fill="url(#cq)" />
    <ellipse rx="16.159" ry="16.157" transform="rotate(-29.993 652.848 -316.633) skewX(.013)" fill="url(#cr)" />
    <ellipse rx="16.159" ry="16.157" transform="rotate(-29.993 699.8 -590.824) skewX(.013)" fill="url(#cs)" />
</svg>